<svg width="579" height="208" viewBox="0 0 579 208" fill="none" xmlns="http://www.w3.org/2000/svg">
<path d="M2.816 141V139.72L5.12 138.952C6.82667 138.355 7.97867 137.544 8.576 136.52C9.17333 135.496 9.472 134.131 9.472 132.424C9.55733 127.304 9.6 122.141 9.6 116.936C9.6 111.731 9.6 106.525 9.6 101.32V96.2C9.6 91.08 9.6 85.96 9.6 80.84C9.6 75.6347 9.55733 70.472 9.472 65.352C9.472 63.6453 9.216 62.28 8.704 61.256C8.27733 60.232 7.25333 59.4213 5.632 58.824L2.816 57.8V56.52H64.768L65.664 77.768H64.384L57.088 64.328C56.2347 62.7067 55.2533 61.4267 54.144 60.488C53.0347 59.5493 51.4987 59.08 49.536 59.08H28.928C28.8427 65.1387 28.8 71.3253 28.8 77.64C28.8 83.9547 28.8 90.2267 28.8 96.456H42.112C44.0747 96.456 45.5253 96.0293 46.464 95.176C47.4027 94.3227 48.2987 93.0853 49.152 91.464L51.84 86.6H53.12V109H51.84L49.024 104.136C48.1707 102.6 47.2747 101.363 46.336 100.424C45.4827 99.4853 44.0747 99.016 42.112 99.016H28.8C28.8 104.989 28.8 110.707 28.8 116.168C28.8 121.544 28.8427 126.835 28.928 132.04C28.928 135.368 30.5493 137.544 33.792 138.568L37.632 139.72V141H2.816ZM71.069 141V139.72L72.605 139.208C75.677 138.184 77.213 136.051 77.213 132.808V64.328C77.213 62.6213 76.8717 61.3413 76.189 60.488C75.5063 59.5493 74.3117 58.8667 72.605 58.44L70.941 58.056V56.776L94.365 51.272L95.901 52.424L95.389 70.344V114.12C95.389 117.277 95.389 120.435 95.389 123.592C95.4743 126.664 95.517 129.736 95.517 132.808C95.517 134.515 95.8583 135.923 96.541 137.032C97.2237 138.056 98.3757 138.824 99.997 139.336L101.661 139.72V141H71.069ZM124.748 142.92C119.799 142.92 115.617 141.512 112.204 138.696C108.876 135.88 107.212 131.827 107.212 126.536C107.212 122.525 109.26 118.856 113.356 115.528C117.452 112.115 123.895 109.555 132.684 107.848C134.049 107.592 135.585 107.336 137.292 107.08C138.999 106.739 140.791 106.397 142.668 106.056V95.944C142.668 90.1413 141.943 86.088 140.492 83.784C139.127 81.3947 136.951 80.2 133.964 80.2C131.916 80.2 130.295 80.8827 129.1 82.248C127.905 83.528 127.137 85.7893 126.796 89.032L126.54 90.44C126.369 94.1093 125.473 96.7973 123.852 98.504C122.231 100.211 120.225 101.064 117.836 101.064C115.617 101.064 113.783 100.381 112.332 99.016C110.881 97.6507 110.156 95.816 110.156 93.512C110.156 90.0133 111.351 87.0693 113.74 84.68C116.215 82.2907 119.457 80.4987 123.468 79.304C127.479 78.1093 131.831 77.512 136.524 77.512C144.119 77.512 149.964 79.3893 154.06 83.144C158.241 86.8133 160.332 92.8293 160.332 101.192V129.48C160.332 133.32 162.124 135.24 165.708 135.24H168.524L169.676 136.264C168.055 138.312 166.263 139.891 164.3 141C162.423 142.109 159.735 142.664 156.236 142.664C152.481 142.664 149.495 141.811 147.276 140.104C145.143 138.312 143.735 135.965 143.052 133.064C140.492 135.795 137.847 138.141 135.116 140.104C132.471 141.981 129.015 142.92 124.748 142.92ZM132.556 135.112C134.263 135.112 135.841 134.728 137.292 133.96C138.828 133.107 140.62 131.827 142.668 130.12V108.616C141.815 108.787 140.961 108.957 140.108 109.128C139.255 109.299 138.273 109.469 137.164 109.64C133.239 110.664 130.081 112.413 127.692 114.888C125.388 117.277 124.236 120.52 124.236 124.616C124.236 128.115 125.047 130.76 126.668 132.552C128.289 134.259 130.252 135.112 132.556 135.112ZM194.454 142.92C190.273 142.92 186.518 142.408 183.19 141.384C179.862 140.445 176.79 139.251 173.974 137.8L174.102 122.568H175.382L179.734 130.248C181.611 133.661 183.659 136.221 185.878 137.928C188.182 139.549 191.083 140.36 194.582 140.36C198.678 140.36 201.963 139.464 204.438 137.672C206.998 135.795 208.278 133.32 208.278 130.248C208.278 127.432 207.382 125.128 205.59 123.336C203.798 121.544 200.47 119.923 195.606 118.472L190.23 116.808C185.025 115.272 180.929 112.883 177.942 109.64C174.955 106.397 173.462 102.429 173.462 97.736C173.462 92.104 175.681 87.3253 180.118 83.4C184.555 79.4747 190.913 77.512 199.19 77.512C202.518 77.512 205.633 77.896 208.534 78.664C211.521 79.3467 214.379 80.4133 217.11 81.864L216.342 95.688H215.062L210.582 87.752C208.961 84.936 207.339 82.9733 205.718 81.864C204.182 80.6693 201.835 80.072 198.678 80.072C195.777 80.072 193.046 80.8827 190.486 82.504C187.926 84.1253 186.646 86.4293 186.646 89.416C186.646 92.3173 187.713 94.6213 189.846 96.328C192.065 98.0347 195.307 99.6133 199.574 101.064L205.334 102.728C211.478 104.605 215.873 107.208 218.518 110.536C221.163 113.779 222.486 117.704 222.486 122.312C222.486 128.541 220.011 133.533 215.062 137.288C210.198 141.043 203.329 142.92 194.454 142.92ZM226.444 141V139.72L227.98 139.208C231.052 138.184 232.588 136.051 232.588 132.808V64.456C232.588 62.664 232.289 61.3413 231.692 60.488C231.095 59.6347 229.943 58.9947 228.236 58.568L226.316 58.056V56.776L248.844 51.272L250.892 52.424L250.38 70.472V86.472C253.367 83.9973 256.567 81.9067 259.98 80.2C263.479 78.408 267.319 77.512 271.5 77.512C277.047 77.512 281.441 79.0907 284.684 82.248C288.012 85.4053 289.676 90.2693 289.676 96.84V132.936C289.676 134.643 290.017 136.008 290.7 137.032C291.383 138.056 292.577 138.824 294.284 139.336L295.308 139.72V141H265.356V139.72L266.892 139.336C269.964 138.312 271.5 136.136 271.5 132.808V92.616C271.5 89.2027 270.903 86.856 269.708 85.576C268.599 84.296 266.593 83.656 263.692 83.656C261.815 83.656 259.767 84.04 257.548 84.808C255.329 85.4907 253.068 86.728 250.764 88.52V133.064C250.764 136.392 252.3 138.525 255.372 139.464L256.396 139.72V141H226.444ZM416.319 142.92C409.834 142.92 404.202 141.597 399.423 138.952C394.644 136.221 390.932 132.381 388.287 127.432C385.727 122.483 384.447 116.68 384.447 110.024C384.447 103.368 385.812 97.608 388.543 92.744C391.359 87.88 395.156 84.1253 399.935 81.48C404.799 78.8347 410.26 77.512 416.319 77.512C422.378 77.512 427.796 78.8347 432.575 81.48C437.354 84.04 441.108 87.752 443.839 92.616C446.655 97.48 448.063 103.283 448.063 110.024C448.063 116.765 446.74 122.611 444.095 127.56C441.535 132.424 437.866 136.221 433.087 138.952C428.394 141.597 422.804 142.92 416.319 142.92ZM416.319 140.36C419.306 140.36 421.695 139.507 423.487 137.8C425.279 136.093 426.559 133.064 427.327 128.712C428.18 124.36 428.607 118.216 428.607 110.28C428.607 102.259 428.18 96.072 427.327 91.72C426.559 87.368 425.279 84.3387 423.487 82.632C421.695 80.9253 419.306 80.072 416.319 80.072C413.332 80.072 410.9 80.9253 409.023 82.632C407.231 84.3387 405.908 87.368 405.055 91.72C404.287 96.072 403.903 102.259 403.903 110.28C403.903 118.216 404.287 124.36 405.055 128.712C405.908 133.064 407.231 136.093 409.023 137.8C410.9 139.507 413.332 140.36 416.319 140.36ZM477.505 142.92C472.044 142.92 467.777 141.555 464.705 138.824C461.718 136.093 460.225 131.741 460.225 125.768V81.992H451.393V80.712L454.465 80.2C457.11 79.6027 459.372 78.7493 461.249 77.64C463.212 76.5307 465.132 75.0373 467.009 73.16L477.505 61.512H478.785L478.401 79.432H492.737V81.992H478.273V128.072C478.273 131.059 478.913 133.32 480.193 134.856C481.558 136.392 483.265 137.16 485.313 137.16C487.105 137.16 488.684 136.733 490.049 135.88C491.414 134.941 492.78 133.704 494.145 132.168L495.425 133.448C493.718 136.349 491.372 138.653 488.385 140.36C485.398 142.067 481.772 142.92 477.505 142.92ZM531.188 77.512C536.735 77.512 541.471 78.664 545.396 80.968C549.321 83.1867 552.308 86.2587 554.356 90.184C556.489 94.024 557.556 98.4187 557.556 103.368C557.556 104.307 557.513 105.288 557.428 106.312C557.343 107.251 557.172 108.104 556.916 108.872H518.772C518.857 118.088 520.479 124.744 523.636 128.84C526.879 132.851 531.657 134.856 537.972 134.856C542.239 134.856 545.695 134.173 548.34 132.808C550.985 131.443 553.46 129.437 555.764 126.792L557.044 127.944C554.399 132.637 550.857 136.307 546.42 138.952C542.068 141.597 536.82 142.92 530.676 142.92C524.617 142.92 519.241 141.64 514.548 139.08C509.855 136.435 506.185 132.68 503.54 127.816C500.895 122.952 499.572 117.149 499.572 110.408C499.572 103.411 501.108 97.48 504.18 92.616C507.252 87.6667 511.177 83.912 515.956 81.352C520.82 78.792 525.897 77.512 531.188 77.512ZM530.804 80.072C528.329 80.072 526.196 80.84 524.404 82.376C522.697 83.8267 521.332 86.472 520.308 90.312C519.369 94.0667 518.857 99.4 518.772 106.312H540.66C541.513 97.0107 541.172 90.312 539.636 86.216C538.1 82.12 535.156 80.072 530.804 80.072Z" fill="#001F27"/>
<path d="M302.23 141V139.72L306.454 138.44C307.99 138.013 309.099 137.203 309.782 136.008C310.465 134.728 310.806 133.235 310.806 131.528V69.96C309.867 67.912 309.099 66.376 308.502 65.352C307.99 64.328 307.393 63.4747 306.71 62.792C306.027 62.024 305.089 61.0853 303.894 59.976L301.718 57.8V56.52H324.374L366.87 114.504V66.248C366.87 64.5413 366.571 63.0053 365.974 61.64C365.462 60.2747 364.353 59.3787 362.646 58.952L358.422 57.8V56.52H376.726V57.8L373.27 58.952C371.734 59.464 370.795 60.36 370.454 61.64C370.113 62.92 369.942 64.4133 369.942 66.12V141.384H362.774L313.878 74.184V131.528C313.878 133.235 314.134 134.685 314.646 135.88C315.158 137.075 316.225 137.928 317.846 138.44L321.686 139.72V141H302.23Z" fill="#720000"/>
<path d="M297.75 153.8H381.334V160.2H297.75V153.8Z" fill="#720000"/>
</svg>
